<?xml version="1.0" encoding="UTF-8"?>
<svg xmlns="http://www.w3.org/2000/svg" xmlns:xlink="http://www.w3.org/1999/xlink" width="796px" height="600px" viewBox="0 0 796 600" version="1.1">
<defs>
<filter id="alpha" filterUnits="objectBoundingBox" x="0%" y="0%" width="100%" height="100%">
  <feColorMatrix type="matrix" in="SourceGraphic" values="0 0 0 0 1 0 0 0 0 1 0 0 0 0 1 0 0 0 1 0"/>
</filter>
<mask id="mask0">
  <g filter="url(#alpha)">
<rect x="0" y="0" width="796" height="600" style="fill:rgb(0%,0%,0%);fill-opacity:0.301961;stroke:none;"/>
  </g>
</mask>
<clipPath id="clip1">
  <rect x="0" y="0" width="796" height="600"/>
</clipPath>
<g id="surface5" clip-path="url(#clip1)">
<path style=" stroke:none;fill-rule:nonzero;fill:rgb(90.196078%,90.196078%,90.196078%);fill-opacity:1;" d="M 654.3125 498.105469 C 654.3125 481.375 547.539062 467.8125 415.832031 467.8125 C 284.121094 467.8125 177.347656 481.375 177.347656 498.105469 C 177.347656 514.832031 284.121094 528.394531 415.832031 528.394531 C 547.539062 528.394531 654.3125 514.832031 654.3125 498.105469 Z M 654.3125 498.105469 "/>
</g>
<mask id="mask1">
  <g filter="url(#alpha)">
<rect x="0" y="0" width="796" height="600" style="fill:rgb(0%,0%,0%);fill-opacity:0.0901961;stroke:none;"/>
  </g>
</mask>
<clipPath id="clip2">
  <rect x="0" y="0" width="796" height="600"/>
</clipPath>
<g id="surface8" clip-path="url(#clip2)">
<path style=" stroke:none;fill-rule:nonzero;fill:rgb(0%,0%,0%);fill-opacity:1;" d="M 315.574219 356.28125 C 315.574219 356.28125 303.394531 439.511719 334.300781 460.390625 C 365.203125 481.265625 418.238281 484.949219 418.238281 484.949219 L 433.480469 507.777344 C 433.480469 507.777344 458.15625 505.527344 468.945312 502.960938 L 453.71875 486.859375 C 453.71875 486.859375 480.964844 487.714844 479.332031 468.351562 C 477.699219 448.984375 460.605469 436.167969 470.078125 410.058594 C 479.550781 383.945312 455.550781 342.910156 455.550781 342.910156 L 426.972656 324.5 Z M 315.574219 356.28125 "/>
</g>
<mask id="mask2">
  <g filter="url(#alpha)">
<rect x="0" y="0" width="796" height="600" style="fill:rgb(0%,0%,0%);fill-opacity:0.0901961;stroke:none;"/>
  </g>
</mask>
<clipPath id="clip3">
  <rect x="0" y="0" width="796" height="600"/>
</clipPath>
<g id="surface11" clip-path="url(#clip3)">
<path style=" stroke:none;fill-rule:nonzero;fill:rgb(0%,0%,0%);fill-opacity:1;" d="M 398.695312 462.222656 C 398.695312 462.222656 401.304688 474.382812 421.898438 469.863281 C 442.496094 465.34375 413.460938 449.960938 413.460938 449.960938 Z M 398.695312 462.222656 "/>
</g>
<mask id="mask3">
  <g filter="url(#alpha)">
<rect x="0" y="0" width="796" height="600" style="fill:rgb(0%,0%,0%);fill-opacity:0.0901961;stroke:none;"/>
  </g>
</mask>
<clipPath id="clip4">
  <rect x="0" y="0" width="796" height="600"/>
</clipPath>
<g id="surface14" clip-path="url(#clip4)">
<path style=" stroke:none;fill-rule:nonzero;fill:rgb(0%,0%,0%);fill-opacity:1;" d="M 451.730469 430.816406 C 451.730469 430.816406 483.113281 429.601562 491.210938 450.359375 C 499.3125 471.117188 458.675781 479.894531 435.671875 471.574219 C 412.667969 463.253906 402.457031 439.730469 402.457031 439.730469 L 429.0625 429.78125 Z M 451.730469 430.816406 "/>
</g>
<mask id="mask4">
  <g filter="url(#alpha)">
<rect x="0" y="0" width="796" height="600" style="fill:rgb(0%,0%,0%);fill-opacity:0.580392;stroke:none;"/>
  </g>
</mask>
<clipPath id="clip5">
  <rect x="0" y="0" width="796" height="600"/>
</clipPath>
<g id="surface17" clip-path="url(#clip5)">
<path style=" stroke:none;fill-rule:nonzero;fill:rgb(0.784314%,24.313725%,54.117647%);fill-opacity:1;" d="M 206.960938 477.128906 C 206.960938 477.128906 194.324219 473.664062 191.578125 461.902344 C 191.578125 461.902344 211.160156 457.921875 211.714844 478.164062 Z M 206.960938 477.128906 "/>
</g>
<mask id="mask5">
  <g filter="url(#alpha)">
<rect x="0" y="0" width="796" height="600" style="fill:rgb(0%,0%,0%);fill-opacity:0.729412;stroke:none;"/>
  </g>
</mask>
<clipPath id="clip6">
  <rect x="0" y="0" width="796" height="600"/>
</clipPath>
<g id="surface20" clip-path="url(#clip6)">
<path style=" stroke:none;fill-rule:nonzero;fill:rgb(0.784314%,24.313725%,54.117647%);fill-opacity:1;" d="M 208.511719 475.773438 C 208.511719 475.773438 199.675781 461.84375 207.457031 448.746094 C 207.457031 448.746094 222.34375 458.21875 215.734375 475.792969 Z M 208.511719 475.773438 "/>
</g>
<mask id="mask6">
  <g filter="url(#alpha)">
<rect x="0" y="0" width="796" height="600" style="fill:rgb(0%,0%,0%);fill-opacity:0.0901961;stroke:none;"/>
  </g>
</mask>
<clipPath id="clip7">
  <rect x="0" y="0" width="796" height="600"/>
</clipPath>
<g id="surface23" clip-path="url(#clip7)">
<path style=" stroke:none;fill-rule:nonzero;fill:rgb(0%,0%,0%);fill-opacity:1;" d="M 394.976562 275.28125 C 394.976562 275.28125 392.328125 294.449219 387.632812 298.84375 L 412.585938 298.84375 C 412.585938 298.84375 404.507812 290.886719 405.242188 273.988281 Z M 394.976562 275.28125 "/>
</g>
<mask id="mask7">
  <g filter="url(#alpha)">
<rect x="0" y="0" width="796" height="600" style="fill:rgb(0%,0%,0%);fill-opacity:0.439216;stroke:none;"/>
  </g>
</mask>
<clipPath id="clip8">
  <rect x="0" y="0" width="796" height="600"/>
</clipPath>
<g id="surface26" clip-path="url(#clip8)">
<path style=" stroke:none;fill-rule:nonzero;fill:rgb(100%,100%,100%);fill-opacity:1;" d="M 466.613281 376.800781 L 494.773438 376.800781 C 494.773438 376.800781 493.640625 305.792969 447.292969 302.167969 C 400.945312 298.546875 466.613281 376.800781 466.613281 376.800781 Z M 466.613281 376.800781 "/>
</g>
<mask id="mask8">
  <g filter="url(#alpha)">
<rect x="0" y="0" width="796" height="600" style="fill:rgb(0%,0%,0%);fill-opacity:0.0901961;stroke:none;"/>
  </g>
</mask>
<clipPath id="clip9">
  <rect x="0" y="0" width="796" height="600"/>
</clipPath>
<g id="surface29" clip-path="url(#clip9)">
<path style=" stroke:none;fill-rule:nonzero;fill:rgb(0%,0%,0%);fill-opacity:1;" d="M 324.925781 331.84375 C 324.925781 331.84375 335.433594 402.039062 382.417969 407.46875 C 429.402344 412.902344 466.613281 386.15625 466.613281 386.15625 L 451.730469 430.816406 L 351.554688 431.589844 L 333.144531 393.539062 C 333.144531 393.539062 318.519531 362.3125 324.925781 331.84375 Z M 324.925781 331.84375 "/>
</g>
<mask id="mask9">
  <g filter="url(#alpha)">
<rect x="0" y="0" width="796" height="600" style="fill:rgb(0%,0%,0%);fill-opacity:0.439216;stroke:none;"/>
  </g>
</mask>
<clipPath id="clip10">
  <rect x="0" y="0" width="796" height="600"/>
</clipPath>
<g id="surface32" clip-path="url(#clip10)">
<path style=" stroke:none;fill-rule:nonzero;fill:rgb(100%,100%,100%);fill-opacity:1;" d="M 316.230469 371.1875 L 365.027344 379.148438 C 365.027344 379.148438 392.429688 314.925781 361.382812 302.070312 C 330.339844 289.214844 311.792969 328.441406 316.230469 371.1875 Z M 316.230469 371.1875 "/>
</g>
<mask id="mask10">
  <g filter="url(#alpha)">
<rect x="0" y="0" width="796" height="600" style="fill:rgb(0%,0%,0%);fill-opacity:0.0705882;stroke:none;"/>
  </g>
</mask>
<clipPath id="clip11">
  <rect x="0" y="0" width="796" height="600"/>
</clipPath>
<g id="surface35" clip-path="url(#clip11)">
<path style=" stroke:none;fill-rule:nonzero;fill:rgb(100%,100%,100%);fill-opacity:1;" d="M 382.65625 126.296875 C 382.65625 128.460938 380.902344 130.214844 378.738281 130.214844 C 376.570312 130.214844 374.816406 128.460938 374.816406 126.296875 C 374.816406 124.128906 376.570312 122.375 378.738281 122.375 C 380.902344 122.375 382.65625 124.128906 382.65625 126.296875 Z M 382.65625 126.296875 "/>
</g>
<mask id="mask11">
  <g filter="url(#alpha)">
<rect x="0" y="0" width="796" height="600" style="fill:rgb(0%,0%,0%);fill-opacity:0.278431;stroke:none;"/>
  </g>
</mask>
<clipPath id="clip12">
  <rect x="0" y="0" width="796" height="600"/>
</clipPath>
<g id="surface38" clip-path="url(#clip12)">
<path style=" stroke:none;fill-rule:nonzero;fill:rgb(100%,100%,100%);fill-opacity:1;" d="M 552.960938 293.472656 L 596.003906 293.472656 L 596.003906 303.304688 L 552.960938 303.304688 Z M 552.960938 293.472656 "/>
</g>
<mask id="mask12">
  <g filter="url(#alpha)">
<rect x="0" y="0" width="796" height="600" style="fill:rgb(0%,0%,0%);fill-opacity:0.231373;stroke:none;"/>
  </g>
</mask>
<clipPath id="clip13">
  <rect x="0" y="0" width="796" height="600"/>
</clipPath>
<g id="surface41" clip-path="url(#clip13)">
<path style=" stroke:none;fill-rule:nonzero;fill:rgb(100%,100%,100%);fill-opacity:1;" d="M 153.269531 243.378906 L 207.378906 243.378906 L 207.378906 286.40625 L 153.269531 286.40625 Z M 153.269531 243.378906 "/>
</g>
<mask id="mask13">
  <g filter="url(#alpha)">
<rect x="0" y="0" width="796" height="600" style="fill:rgb(0%,0%,0%);fill-opacity:0.231373;stroke:none;"/>
  </g>
</mask>
<clipPath id="clip14">
  <rect x="0" y="0" width="796" height="600"/>
</clipPath>
<g id="surface44" clip-path="url(#clip14)">
<path style=" stroke:none;fill-rule:nonzero;fill:rgb(100%,100%,100%);fill-opacity:1;" d="M 216.273438 262.761719 L 241.328125 262.761719 L 241.328125 268.613281 L 216.273438 268.613281 Z M 216.273438 262.761719 "/>
</g>
<mask id="mask14">
  <g filter="url(#alpha)">
<rect x="0" y="0" width="796" height="600" style="fill:rgb(0%,0%,0%);fill-opacity:0.231373;stroke:none;"/>
  </g>
</mask>
<clipPath id="clip15">
  <rect x="0" y="0" width="796" height="600"/>
</clipPath>
<g id="surface47" clip-path="url(#clip15)">
<path style=" stroke:none;fill-rule:nonzero;fill:rgb(100%,100%,100%);fill-opacity:1;" d="M 216.273438 274.367188 L 241.328125 274.367188 L 241.328125 280.21875 L 216.273438 280.21875 Z M 216.273438 274.367188 "/>
</g>
<mask id="mask15">
  <g filter="url(#alpha)">
<rect x="0" y="0" width="796" height="600" style="fill:rgb(0%,0%,0%);fill-opacity:0.231373;stroke:none;"/>
  </g>
</mask>
<clipPath id="clip16">
  <rect x="0" y="0" width="796" height="600"/>
</clipPath>
<g id="surface50" clip-path="url(#clip16)">
<path style=" stroke:none;fill-rule:nonzero;fill:rgb(100%,100%,100%);fill-opacity:1;" d="M 151.578125 297.472656 L 241.347656 297.472656 L 241.347656 329.476562 L 151.578125 329.476562 Z M 151.578125 297.472656 "/>
</g>
<mask id="mask16">
  <g filter="url(#alpha)">
<rect x="0" y="0" width="796" height="600" style="fill:rgb(0%,0%,0%);fill-opacity:0.729412;stroke:none;"/>
  </g>
</mask>
<clipPath id="clip17">
  <rect x="0" y="0" width="796" height="600"/>
</clipPath>
<g id="surface53" clip-path="url(#clip17)">
<path style=" stroke:none;fill-rule:nonzero;fill:rgb(100%,100%,100%);fill-opacity:1;" d="M 153.269531 286.425781 L 169.25 262.761719 L 182.164062 280.933594 L 193.847656 266.367188 L 207.359375 286.425781 Z M 153.269531 286.425781 "/>
</g>
</defs>
<g id="surface1">
<use xlink:href="#surface5" mask="url(#mask0)"/>
<path style=" stroke:none;fill-rule:nonzero;fill:rgb(90.196078%,90.196078%,90.196078%);fill-opacity:1;" d="M 495.730469 455.074219 L 555.667969 455.074219 L 555.667969 487.179688 L 495.730469 487.179688 Z M 495.730469 455.074219 "/>
<path style=" stroke:none;fill-rule:nonzero;fill:rgb(78.823529%,78.823529%,78.823529%);fill-opacity:1;" d="M 529.777344 475.4375 L 589.714844 475.4375 L 589.714844 490.980469 L 529.777344 490.980469 Z M 529.777344 475.4375 "/>
<path style=" stroke:none;fill-rule:nonzero;fill:rgb(100%,82.352941%,0%);fill-opacity:1;" d="M 366.160156 284.257812 C 366.160156 284.257812 319.414062 287.105469 301.585938 319.085938 C 283.753906 351.070312 274.539062 462.957031 312.667969 490.023438 C 350.796875 517.089844 490.972656 515.894531 518.632812 479.554688 C 546.292969 443.214844 495.648438 418.277344 491.171875 381.738281 C 486.695312 345.199219 488.464844 263.558594 366.160156 284.257812 Z M 366.160156 284.257812 "/>
<use xlink:href="#surface8" mask="url(#mask1)"/>
<path style=" stroke:none;fill-rule:nonzero;fill:rgb(0.784314%,24.313725%,54.117647%);fill-opacity:1;" d="M 398.695312 462.222656 C 398.695312 462.222656 401.304688 474.382812 421.898438 469.863281 C 442.496094 465.34375 413.460938 449.960938 413.460938 449.960938 Z M 398.695312 462.222656 "/>
<use xlink:href="#surface11" mask="url(#mask2)"/>
<path style=" stroke:none;fill-rule:nonzero;fill:rgb(14.117647%,15.686275%,35.686275%);fill-opacity:1;" d="M 451.730469 430.816406 C 451.730469 430.816406 483.113281 429.601562 491.210938 450.359375 C 499.3125 471.117188 458.675781 479.894531 435.671875 471.574219 C 412.667969 463.253906 402.457031 439.730469 402.457031 439.730469 L 429.0625 429.78125 Z M 451.730469 430.816406 "/>
<use xlink:href="#surface14" mask="url(#mask3)"/>
<path style=" stroke:none;fill-rule:nonzero;fill:rgb(95.686275%,63.529412%,54.901961%);fill-opacity:1;" d="M 450.59375 303.484375 C 450.59375 303.484375 473.0625 304.539062 482.753906 331.882812 C 492.445312 359.226562 499.410156 418.894531 484.625 422.933594 C 469.839844 426.972656 446.992188 354.390625 446.992188 354.390625 Z M 450.59375 303.484375 "/>
<use xlink:href="#surface17" mask="url(#mask4)"/>
<use xlink:href="#surface20" mask="url(#mask5)"/>
<path style=" stroke:none;fill-rule:nonzero;fill:rgb(0.784314%,24.313725%,54.117647%);fill-opacity:1;" d="M 210.78125 475.773438 C 210.78125 475.773438 215.457031 461.027344 229.546875 458.242188 C 229.546875 458.242188 232.191406 467.8125 220.433594 475.8125 Z M 210.78125 475.773438 "/>
<path style=" stroke:none;fill-rule:nonzero;fill:rgb(14.117647%,15.686275%,35.686275%);fill-opacity:1;" d="M 201.625 475.457031 L 204.195312 492.96875 L 220.3125 493.050781 L 222.699219 475.535156 Z M 201.625 475.457031 "/>
<path style=" stroke:none;fill-rule:nonzero;fill:rgb(14.117647%,15.686275%,35.686275%);fill-opacity:1;" d="M 666.390625 332.519531 L 528.285156 332.519531 L 528.285156 249.46875 L 666.390625 249.46875 Z M 666.390625 332.519531 "/>
<path style=" stroke:none;fill-rule:nonzero;fill:rgb(14.117647%,15.686275%,35.686275%);fill-opacity:1;" d="M 257.007812 348.699219 L 134.800781 348.699219 L 134.800781 224.09375 L 257.007812 224.09375 Z M 257.007812 348.699219 "/>
<path style=" stroke:none;fill-rule:nonzero;fill:rgb(14.117647%,15.686275%,35.686275%);fill-opacity:1;" d="M 456.226562 168.46875 L 339.632812 168.46875 L 339.632812 84.679688 L 456.226562 84.679688 Z M 456.226562 168.46875 "/>
<path style=" stroke:none;fill-rule:nonzero;fill:rgb(95.686275%,63.529412%,54.901961%);fill-opacity:1;" d="M 394.976562 275.28125 C 394.976562 275.28125 392.328125 294.449219 387.632812 298.84375 L 412.585938 298.84375 C 412.585938 298.84375 404.507812 290.886719 405.242188 273.988281 Z M 394.976562 275.28125 "/>
<use xlink:href="#surface23" mask="url(#mask6)"/>
<path style=" stroke:none;fill-rule:nonzero;fill:rgb(95.686275%,63.529412%,54.901961%);fill-opacity:1;" d="M 388.050781 259.738281 C 388.050781 259.738281 387.175781 282.746094 399.234375 284.199219 C 411.292969 285.652344 408.386719 259.398438 408.386719 259.398438 C 408.386719 259.398438 409.042969 246.484375 401.960938 245.210938 C 394.875 243.9375 385.5625 243.28125 388.050781 259.738281 Z M 388.050781 259.738281 "/>
<path style=" stroke:none;fill-rule:nonzero;fill:rgb(95.686275%,63.529412%,54.901961%);fill-opacity:1;" d="M 388.210938 265.050781 C 388.210938 265.050781 381.941406 263.519531 382.457031 266.683594 C 382.976562 269.847656 382.199219 274.167969 389.222656 271.859375 Z M 388.210938 265.050781 "/>
<path style=" stroke:none;fill-rule:nonzero;fill:rgb(95.686275%,63.529412%,54.901961%);fill-opacity:1;" d="M 408.328125 263.441406 C 408.328125 263.441406 414.417969 261.332031 414.199219 264.535156 C 413.980469 267.738281 415.171875 271.957031 407.949219 270.304688 Z M 408.328125 263.441406 "/>
<path style=" stroke:none;fill-rule:nonzero;fill:rgb(0.784314%,24.313725%,54.117647%);fill-opacity:1;" d="M 466.613281 376.800781 L 494.773438 376.800781 C 494.773438 376.800781 493.640625 305.792969 447.292969 302.167969 C 400.945312 298.546875 466.613281 376.800781 466.613281 376.800781 Z M 466.613281 376.800781 "/>
<use xlink:href="#surface26" mask="url(#mask7)"/>
<path style=" stroke:none;fill-rule:nonzero;fill:rgb(0.784314%,24.313725%,54.117647%);fill-opacity:1;" d="M 334.539062 396.585938 C 327.761719 382.8125 323.984375 367.761719 323.453125 352.421875 C 323.453125 351.265625 323.453125 350.09375 323.453125 348.917969 C 323.453125 327.625 329.425781 300.816406 357.902344 299.941406 C 405.441406 298.46875 465.222656 292.597656 473.679688 323.824219 C 482.136719 355.046875 451.789062 430.816406 451.789062 430.816406 L 351.613281 431.589844 Z M 334.539062 396.585938 "/>
<use xlink:href="#surface29" mask="url(#mask8)"/>
<path style=" stroke:none;fill-rule:nonzero;fill:rgb(95.686275%,63.529412%,54.901961%);fill-opacity:1;" d="M 475.492188 423.253906 C 485.28125 428.785156 495.648438 416.945312 489.0625 407.828125 C 486.152344 403.738281 482.945312 399.867188 479.46875 396.246094 C 470.058594 386.574219 433.699219 361.578125 433.699219 361.578125 L 424.925781 371.527344 C 424.925781 371.527344 439.789062 386.273438 448.683594 396.027344 C 454.078125 401.878906 464.464844 417.042969 475.492188 423.253906 Z M 475.492188 423.253906 "/>
<path style=" stroke:none;fill-rule:nonzero;fill:rgb(100%,82.352941%,0%);fill-opacity:1;" d="M 423.332031 340.613281 L 442.792969 342.925781 L 438.832031 376.246094 L 419.371094 373.933594 Z M 423.332031 340.613281 "/>
<path style=" stroke:none;fill-rule:nonzero;fill:rgb(95.686275%,63.529412%,54.901961%);fill-opacity:1;" d="M 374.238281 326.089844 C 375.613281 301.96875 342.179688 293.035156 329.722656 313.730469 C 324.070312 323.125 319.773438 336.003906 318.777344 353.714844 C 315.015625 418.574219 331.15625 438.160156 350.5 434 C 369.839844 429.839844 417.640625 375.011719 417.640625 375.011719 C 417.640625 375.011719 435.988281 367.90625 426.039062 353.714844 C 416.089844 339.523438 409.941406 365.875 409.941406 365.875 C 409.941406 365.875 357.523438 408.40625 356.925781 391.746094 C 356.667969 383.964844 371.871094 368.34375 374.238281 326.089844 Z M 374.238281 326.089844 "/>
<path style=" stroke:none;fill-rule:nonzero;fill:rgb(14.117647%,15.686275%,35.686275%);fill-opacity:1;" d="M 385.820312 264.695312 L 383.574219 257.25 C 383.039062 255.332031 381.773438 253.703125 380.050781 252.714844 C 377.878906 251.511719 376.832031 248.964844 377.523438 246.582031 C 378.519531 240.136719 385.980469 244.773438 384.964844 239.539062 C 383.949219 234.304688 390.933594 230.261719 393.839844 232.273438 C 396.746094 234.285156 399.492188 239.320312 401.503906 236.09375 C 402.496094 234.484375 404.199219 233.4375 406.085938 233.28125 C 407.976562 233.125 409.828125 233.871094 411.074219 235.296875 C 413.601562 238.523438 408.566406 243.675781 411.074219 244.632812 C 413.582031 245.589844 420.25 247.398438 417.640625 251.617188 C 417.023438 252.636719 416.125 253.460938 415.054688 253.988281 C 411.808594 255.386719 409.433594 258.257812 408.667969 261.707031 L 408.328125 263.441406 C 407.796875 260.074219 406.863281 256.789062 405.542969 253.648438 C 403.730469 250.007812 391.433594 248.59375 390.21875 252.035156 C 389.207031 256.316406 388.542969 260.667969 388.230469 265.050781 Z M 385.820312 264.695312 "/>
<path style=" stroke:none;fill-rule:nonzero;fill:rgb(0.784314%,24.313725%,54.117647%);fill-opacity:1;" d="M 316.230469 371.1875 L 365.027344 379.148438 C 365.027344 379.148438 392.429688 314.925781 361.382812 302.070312 C 330.339844 289.214844 311.792969 328.441406 316.230469 371.1875 Z M 316.230469 371.1875 "/>
<use xlink:href="#surface32" mask="url(#mask9)"/>
<path style=" stroke:none;fill-rule:nonzero;fill:rgb(14.117647%,15.686275%,35.686275%);fill-opacity:1;" d="M 350.5 434 L 396.625 423.015625 C 414.179688 418.824219 432.3125 427.261719 440.40625 443.394531 L 466.59375 493.148438 L 450.476562 502.859375 L 421.878906 469.863281 C 416.175781 463.1875 407.230469 460.242188 398.675781 462.222656 C 380.828125 466.480469 350.976562 468.390625 350.5 434 Z M 350.5 434 "/>
<path style=" stroke:none;fill-rule:nonzero;fill:rgb(0.784314%,24.313725%,54.117647%);fill-opacity:1;" d="M 455.550781 499.914062 L 459.273438 505.886719 C 460.011719 507.066406 461.253906 507.839844 462.636719 507.992188 C 464.019531 508.144531 465.398438 507.652344 466.375 506.660156 L 477.996094 494.722656 C 479.335938 493.417969 479.765625 491.441406 479.082031 489.703125 C 478.398438 487.964844 476.742188 486.804688 474.875 486.761719 C 469.78125 486.78125 462.835938 489.308594 455.550781 499.914062 Z M 455.550781 499.914062 "/>
<path style=" stroke:none;fill-rule:nonzero;fill:rgb(0.784314%,24.313725%,54.117647%);fill-opacity:1;" d="M 369.265625 116.445312 L 389.800781 116.445312 L 389.800781 146.554688 L 369.265625 146.554688 Z M 369.265625 116.445312 "/>
<path style=" stroke:none;fill-rule:nonzero;fill:rgb(100%,100%,100%);fill-opacity:1;" d="M 389.800781 119.609375 C 389.800781 119.609375 400.867188 120.246094 402.734375 109.378906 L 403.851562 102.949219 C 404.09375 101.59375 405.054688 100.480469 406.355469 100.035156 C 407.660156 99.59375 409.101562 99.894531 410.117188 100.820312 C 411.695312 102.359375 412.582031 104.46875 412.585938 106.671875 C 412.964844 114.632812 409.003906 117.339844 417.144531 119.609375 C 425.28125 121.878906 429.441406 123.988281 428.605469 130.039062 C 427.769531 136.085938 420.46875 135.25 420.46875 138.8125 C 420.46875 142.375 418.476562 148.1875 405.878906 146.097656 C 393.285156 144.007812 389.800781 144.226562 389.800781 144.226562 Z M 389.800781 119.609375 "/>
<use xlink:href="#surface35" mask="url(#mask10)"/>
<path style=" stroke:none;fill-rule:nonzero;fill:rgb(100%,82.352941%,0%);fill-opacity:1;" d="M 638.609375 292.734375 L 638.371094 292.734375 L 638.371094 283.261719 C 638.367188 278.542969 634.648438 274.667969 629.933594 274.464844 C 630.835938 273.699219 631.160156 272.449219 630.75 271.339844 C 630.34375 270.230469 629.285156 269.492188 628.105469 269.492188 C 626.914062 269.476562 625.84375 270.21875 625.4375 271.335938 C 625.027344 272.457031 625.371094 273.710938 626.292969 274.464844 C 621.609375 274.710938 617.9375 278.574219 617.933594 283.261719 L 617.933594 292.734375 C 616.175781 292.734375 614.75 294.160156 614.75 295.921875 L 614.75 296.914062 C 614.75 298.675781 616.171875 300.109375 617.933594 300.121094 L 638.628906 300.121094 C 640.398438 300.121094 641.835938 298.683594 641.835938 296.914062 L 641.835938 296.019531 C 641.855469 295.152344 641.527344 294.3125 640.917969 293.695312 C 640.308594 293.078125 639.476562 292.730469 638.609375 292.734375 Z M 638.609375 292.734375 "/>
<path style=" stroke:none;fill-rule:nonzero;fill:rgb(100%,82.352941%,0%);fill-opacity:1;" d="M 624.304688 301.988281 C 624.113281 302.472656 624.011719 302.984375 624.003906 303.503906 C 624.15625 305.660156 625.949219 307.335938 628.113281 307.335938 C 630.277344 307.335938 632.074219 305.660156 632.222656 303.503906 C 632.214844 302.984375 632.113281 302.472656 631.925781 301.988281 Z M 624.304688 301.988281 "/>
<path style=" stroke:none;fill-rule:nonzero;fill:rgb(100%,100%,100%);fill-opacity:1;" d="M 552.960938 275.0625 L 596.003906 275.0625 L 596.003906 284.894531 L 552.960938 284.894531 Z M 552.960938 275.0625 "/>
<use xlink:href="#surface38" mask="url(#mask11)"/>
<path style=" stroke:none;fill-rule:nonzero;fill:rgb(90.196078%,90.196078%,90.196078%);fill-opacity:1;" d="M 205.207031 199.195312 L 204.929688 199.195312 C 204.402344 199.042969 204.101562 198.492188 204.253906 197.960938 C 204.914062 196.019531 205.691406 194.121094 206.582031 192.269531 C 206.816406 191.777344 207.402344 191.566406 207.894531 191.792969 C 208.136719 191.90625 208.324219 192.109375 208.414062 192.359375 C 208.503906 192.609375 208.488281 192.886719 208.371094 193.125 C 207.519531 194.867188 206.78125 196.664062 206.164062 198.5 C 206.039062 198.921875 205.648438 199.207031 205.207031 199.195312 Z M 217.984375 176.746094 C 217.601562 176.761719 217.242188 176.554688 217.070312 176.207031 C 216.898438 175.863281 216.945312 175.453125 217.1875 175.15625 C 218.402344 173.582031 219.695312 172.03125 221.03125 170.496094 C 221.390625 170.082031 222.023438 170.035156 222.441406 170.398438 C 222.859375 170.761719 222.90625 171.394531 222.542969 171.8125 C 221.226562 173.304688 219.953125 174.835938 218.761719 176.367188 C 218.578125 176.613281 218.289062 176.75 217.984375 176.746094 Z M 236.191406 158.457031 C 235.886719 158.453125 235.59375 158.316406 235.398438 158.078125 C 235.058594 157.648438 235.128906 157.027344 235.554688 156.6875 C 237.109375 155.453125 238.71875 154.21875 240.351562 153.042969 C 240.796875 152.71875 241.421875 152.816406 241.746094 153.261719 C 242.070312 153.707031 241.972656 154.332031 241.527344 154.65625 C 239.914062 155.832031 238.324219 157.023438 236.808594 158.238281 C 236.632812 158.371094 236.414062 158.449219 236.191406 158.457031 Z M 257.945312 144.527344 C 257.5625 144.527344 257.214844 144.308594 257.046875 143.96875 C 256.8125 143.480469 257.007812 142.890625 257.484375 142.636719 C 259.238281 141.757812 261.046875 140.882812 262.898438 140.046875 C 263.136719 139.933594 263.410156 139.917969 263.65625 140.007812 C 263.902344 140.097656 264.105469 140.285156 264.210938 140.527344 C 264.328125 140.765625 264.34375 141.042969 264.253906 141.292969 C 264.164062 141.542969 263.976562 141.746094 263.734375 141.859375 C 261.882812 142.675781 260.113281 143.550781 258.382812 144.40625 C 258.25 144.496094 258.101562 144.550781 257.945312 144.566406 Z M 281.824219 134.914062 C 281.390625 134.910156 281.003906 134.628906 280.867188 134.214844 C 280.710938 133.691406 281.003906 133.132812 281.523438 132.960938 C 283.515625 132.386719 285.328125 131.828125 287.296875 131.292969 C 287.847656 131.148438 288.40625 131.476562 288.550781 132.027344 C 288.691406 132.578125 288.363281 133.136719 287.8125 133.28125 C 285.824219 133.796875 283.972656 134.355469 282.121094 134.933594 Z M 306.976562 129.0625 C 306.429688 129.105469 305.945312 128.695312 305.902344 128.148438 C 305.859375 127.597656 306.269531 127.117188 306.816406 127.070312 C 308.808594 126.753906 310.796875 126.453125 312.789062 126.195312 C 313.054688 126.152344 313.324219 126.214844 313.539062 126.378906 C 313.753906 126.539062 313.894531 126.785156 313.921875 127.050781 C 313.980469 127.59375 313.605469 128.085938 313.066406 128.167969 C 311.078125 128.425781 309.085938 128.722656 307.097656 129.042969 Z M 306.976562 129.0625 "/>
<path style=" stroke:none;fill-rule:nonzero;fill:rgb(90.196078%,90.196078%,90.196078%);fill-opacity:1;" d="M 598.132812 214.519531 C 597.703125 214.519531 597.324219 214.238281 597.199219 213.824219 C 596.601562 211.953125 595.945312 210.082031 595.210938 208.253906 C 595.113281 208.003906 595.117188 207.726562 595.226562 207.484375 C 595.335938 207.242188 595.535156 207.050781 595.785156 206.957031 C 596.300781 206.777344 596.867188 207.03125 597.078125 207.535156 C 597.796875 209.40625 598.453125 211.316406 599.070312 213.207031 C 599.148438 213.460938 599.125 213.734375 599.003906 213.972656 C 598.878906 214.207031 598.667969 214.382812 598.414062 214.460938 C 598.324219 214.496094 598.230469 214.519531 598.132812 214.519531 Z M 587.269531 191.15625 C 586.925781 191.160156 586.601562 190.988281 586.414062 190.699219 C 585.378906 189.046875 584.265625 187.414062 583.109375 185.800781 C 582.800781 185.351562 582.90625 184.734375 583.347656 184.410156 C 583.566406 184.253906 583.832031 184.195312 584.09375 184.238281 C 584.355469 184.285156 584.589844 184.429688 584.742188 184.648438 C 585.914062 186.28125 587.03125 187.953125 588.105469 189.644531 C 588.25 189.867188 588.300781 190.140625 588.238281 190.398438 C 588.179688 190.65625 588.015625 190.882812 587.785156 191.015625 C 587.628906 191.113281 587.449219 191.160156 587.269531 191.15625 Z M 570.929688 171.253906 C 570.671875 171.25 570.421875 171.152344 570.234375 170.976562 C 568.820312 169.601562 567.367188 168.269531 565.875 166.996094 C 565.675781 166.824219 565.550781 166.582031 565.53125 166.320312 C 565.515625 166.058594 565.601562 165.796875 565.777344 165.601562 C 566.144531 165.191406 566.769531 165.148438 567.191406 165.503906 C 568.703125 166.816406 570.195312 168.1875 571.628906 169.582031 C 572.007812 169.96875 572.007812 170.589844 571.628906 170.976562 C 571.4375 171.144531 571.1875 171.230469 570.929688 171.214844 Z M 550.613281 155.332031 C 550.421875 155.328125 550.238281 155.273438 550.074219 155.171875 C 548.402344 154.097656 546.710938 153.0625 545.019531 152.070312 C 544.675781 151.914062 544.449219 151.574219 544.4375 151.191406 C 544.425781 150.8125 544.628906 150.460938 544.964844 150.28125 C 545.300781 150.105469 545.710938 150.132812 546.015625 150.355469 C 547.746094 151.351562 549.457031 152.347656 551.152344 153.5 C 551.609375 153.800781 551.746094 154.414062 551.449219 154.875 C 551.246094 155.125 550.9375 155.265625 550.613281 155.253906 Z M 527.789062 143.171875 C 527.65625 143.203125 527.519531 143.203125 527.390625 143.171875 C 525.539062 142.375 523.707031 141.601562 521.898438 140.863281 C 521.535156 140.753906 521.265625 140.449219 521.207031 140.074219 C 521.144531 139.699219 521.300781 139.324219 521.605469 139.105469 C 521.914062 138.882812 522.320312 138.855469 522.652344 139.03125 C 524.484375 139.769531 526.316406 140.546875 528.1875 141.363281 C 528.429688 141.464844 528.621094 141.664062 528.714844 141.914062 C 528.808594 142.160156 528.796875 142.433594 528.683594 142.675781 C 528.480469 142.964844 528.140625 143.121094 527.789062 143.09375 Z M 503.46875 134.238281 L 503.171875 134.238281 C 501.195312 133.667969 499.285156 133.128906 497.441406 132.625 C 496.914062 132.480469 496.605469 131.9375 496.742188 131.410156 C 496.804688 131.152344 496.96875 130.929688 497.199219 130.796875 C 497.429688 130.664062 497.703125 130.636719 497.957031 130.714844 C 499.808594 131.191406 501.757812 131.730469 503.75 132.324219 C 504.296875 132.402344 504.679688 132.910156 504.605469 133.460938 C 504.527344 134.011719 504.019531 134.394531 503.46875 134.316406 Z M 478.195312 128.425781 L 478.039062 128.425781 C 474.316406 127.828125 472.066406 127.609375 472.066406 127.589844 C 471.519531 127.535156 471.117188 127.042969 471.171875 126.496094 C 471.226562 125.945312 471.71875 125.542969 472.265625 125.597656 C 472.265625 125.597656 474.515625 125.839844 478.238281 126.433594 C 478.785156 126.480469 479.195312 126.960938 479.152344 127.507812 C 479.109375 128.058594 478.628906 128.46875 478.078125 128.425781 Z M 478.195312 128.425781 "/>
<path style=" stroke:none;fill-rule:nonzero;fill:rgb(90.196078%,90.196078%,90.196078%);fill-opacity:1;" d="M 543.269531 417.5625 C 542.71875 417.5625 542.273438 417.117188 542.273438 416.566406 C 542.273438 416.015625 542.71875 415.570312 543.269531 415.570312 C 545.261719 415.570312 547.25 415.570312 549.238281 415.351562 C 549.503906 415.324219 549.769531 415.40625 549.972656 415.578125 C 550.175781 415.753906 550.300781 416 550.316406 416.265625 C 550.332031 416.53125 550.242188 416.789062 550.066406 416.988281 C 549.890625 417.1875 549.644531 417.308594 549.378906 417.320312 C 547.390625 417.460938 545.398438 417.539062 543.410156 417.5625 Z M 568.683594 413.582031 C 568.257812 413.582031 567.878906 413.308594 567.746094 412.902344 C 567.574219 412.382812 567.847656 411.816406 568.363281 411.628906 C 570.210938 411 572.023438 410.277344 573.796875 409.460938 C 574.296875 409.238281 574.882812 409.460938 575.109375 409.957031 C 575.222656 410.195312 575.238281 410.46875 575.148438 410.714844 C 575.058594 410.964844 574.871094 411.164062 574.632812 411.273438 C 572.796875 412.125 570.917969 412.875 569 413.519531 C 568.898438 413.554688 568.789062 413.566406 568.683594 413.5625 Z M 590.351562 399.96875 C 590.09375 399.976562 589.839844 399.875 589.65625 399.6875 C 589.46875 399.503906 589.363281 399.253906 589.363281 398.992188 C 589.363281 398.730469 589.46875 398.480469 589.65625 398.296875 C 591.007812 396.882812 592.277344 395.394531 593.457031 393.835938 C 593.792969 393.40625 594.417969 393.324219 594.851562 393.660156 C 595.28125 393.996094 595.367188 394.609375 595.050781 395.050781 C 593.804688 396.660156 592.476562 398.199219 591.070312 399.667969 C 590.875 399.851562 590.621094 399.953125 590.351562 399.949219 Z M 603.449219 377.894531 C 603.34375 377.917969 603.234375 377.917969 603.128906 377.894531 C 602.875 377.820312 602.664062 377.640625 602.542969 377.40625 C 602.421875 377.167969 602.40625 376.894531 602.492188 376.640625 C 603.128906 374.8125 603.6875 372.921875 604.183594 370.992188 C 604.25 370.734375 604.414062 370.515625 604.640625 370.378906 C 604.871094 370.246094 605.140625 370.207031 605.398438 370.273438 C 605.925781 370.417969 606.242188 370.957031 606.113281 371.488281 C 605.597656 373.476562 605.019531 375.46875 604.382812 377.28125 C 604.222656 377.648438 603.851562 377.886719 603.449219 377.875 Z M 607.765625 352.441406 C 607.5 352.441406 607.246094 352.332031 607.0625 352.140625 C 606.878906 351.949219 606.78125 351.691406 606.789062 351.425781 C 606.789062 350.910156 606.789062 350.429688 606.789062 349.972656 C 606.789062 347.226562 606.632812 345.59375 606.632812 345.574219 C 606.585938 345.027344 606.980469 344.542969 607.527344 344.480469 C 608.078125 344.445312 608.558594 344.847656 608.621094 345.394531 C 608.621094 345.394531 608.78125 347.128906 608.78125 349.972656 C 608.78125 350.429688 608.78125 350.949219 608.78125 351.464844 C 608.757812 352.007812 608.308594 352.433594 607.765625 352.421875 Z M 607.765625 352.441406 "/>
<path style=" stroke:none;fill-rule:nonzero;fill:rgb(90.196078%,90.196078%,90.196078%);fill-opacity:1;" d="M 259 440.546875 C 256.890625 440.546875 254.898438 440.546875 253.027344 440.328125 C 252.765625 440.308594 252.519531 440.183594 252.347656 439.980469 C 252.175781 439.78125 252.089844 439.519531 252.113281 439.253906 C 252.128906 438.988281 252.25 438.738281 252.453125 438.566406 C 252.65625 438.394531 252.921875 438.3125 253.1875 438.339844 C 255.058594 438.476562 257.007812 438.558594 258.957031 438.558594 C 259.511719 438.566406 259.960938 439 259.992188 439.550781 C 260.011719 439.820312 259.914062 440.085938 259.722656 440.277344 C 259.53125 440.464844 259.265625 440.566406 259 440.546875 Z M 233.804688 435.832031 C 233.675781 435.859375 233.539062 435.859375 233.40625 435.832031 C 231.546875 435.046875 229.726562 434.171875 227.953125 433.203125 C 227.445312 432.957031 227.230469 432.339844 227.476562 431.832031 C 227.722656 431.320312 228.339844 431.105469 228.851562 431.351562 C 230.558594 432.296875 232.320312 433.148438 234.125 433.902344 C 234.671875 434.003906 235.035156 434.535156 234.929688 435.085938 C 234.824219 435.632812 234.296875 435.996094 233.746094 435.890625 Z M 213.03125 420.84375 C 212.742188 420.84375 212.46875 420.71875 212.273438 420.507812 C 210.960938 419.015625 209.667969 417.441406 208.453125 415.808594 C 208.136719 415.363281 208.234375 414.746094 208.671875 414.417969 C 209.109375 414.085938 209.734375 414.175781 210.0625 414.617188 C 211.238281 416.207031 212.492188 417.738281 213.765625 419.171875 C 214.148438 419.566406 214.148438 420.191406 213.765625 420.585938 C 213.558594 420.761719 213.296875 420.851562 213.03125 420.84375 Z M 199.558594 398.851562 C 199.160156 398.855469 198.800781 398.621094 198.640625 398.257812 C 197.886719 396.445312 197.167969 394.535156 196.492188 392.605469 C 196.320312 392.085938 196.59375 391.527344 197.109375 391.351562 C 197.355469 391.253906 197.628906 391.265625 197.863281 391.378906 C 198.101562 391.492188 198.28125 391.695312 198.363281 391.945312 C 199.019531 393.9375 199.734375 395.707031 200.492188 397.480469 C 200.6875 397.992188 200.453125 398.566406 199.957031 398.792969 C 199.828125 398.832031 199.691406 398.851562 199.558594 398.851562 Z M 192.59375 373.957031 C 192.101562 373.949219 191.6875 373.585938 191.617188 373.101562 C 191.019531 369.398438 190.878906 367.128906 190.859375 367.128906 C 190.824219 366.578125 191.238281 366.101562 191.785156 366.066406 C 192.335938 366.027344 192.8125 366.441406 192.851562 366.988281 C 192.851562 366.988281 193.011719 369.257812 193.566406 372.960938 C 193.613281 373.21875 193.550781 373.488281 193.398438 373.699219 C 193.246094 373.914062 193.011719 374.054688 192.75 374.09375 Z M 192.59375 373.957031 "/>
<use xlink:href="#surface41" mask="url(#mask12)"/>
<path style=" stroke:none;fill-rule:nonzero;fill:rgb(100%,100%,100%);fill-opacity:1;" d="M 216.273438 250.144531 L 241.328125 250.144531 L 241.328125 255.996094 L 216.273438 255.996094 Z M 216.273438 250.144531 "/>
<use xlink:href="#surface44" mask="url(#mask13)"/>
<use xlink:href="#surface47" mask="url(#mask14)"/>
<use xlink:href="#surface50" mask="url(#mask15)"/>
<use xlink:href="#surface53" mask="url(#mask16)"/>
<path style=" stroke:none;fill-rule:nonzero;fill:rgb(100%,100%,100%);fill-opacity:1;" d="M 186.921875 257.109375 C 186.921875 259.804688 184.738281 261.988281 182.046875 261.988281 C 179.351562 261.988281 177.167969 259.804688 177.167969 257.109375 C 177.167969 254.417969 179.351562 252.234375 182.046875 252.234375 C 184.738281 252.234375 186.921875 254.417969 186.921875 257.109375 Z M 186.921875 257.109375 "/>
</g>
</svg>
